# xmcd CD database file
#
# Track frame offsets:
#	183
#	11083
#	23925
#	35680
#	50230
#	63958
#	78098
#	92903
#	107838
#	122558
#	136753
#	150935
#	164815
#	179315
#	193520
#	207145
#	221445
#	233835
#	247880
#	262805
#	275135
#	290545
#	305600
#
# Disc length: 4207 seconds
#
# Revision: 2
# Processed by: cddbd v1.5.1PL0 Copyright (c) Steve Scherf et al.
# Submitted via: CDex 1.51
#
DISCID=44106d17
DTITLE=Blind Willie McTell - Blind Willie McTell 1927 - 1949
DYEAR=1900
DGENRE=Blues
TTITLE0=Mr. McTell Got The Blues
TTITLE1=Dark Night Blues
TTITLE2=Loving Talking Blues
TTITLE3=Travelin' Blues
TTITLE4=Come On Around To My House Mama
TTITLE5=Broke Down Engine Blues
TTITLE6=Rough Alley Blues
TTITLE7=Low Rider's Blues
TTITLE8=Lonesome Day Blues
TTITLE9=Mama, Let Me Scoop For You
TTITLE10=Searching The Desert For The Blues
TTITLE11=Rollin' Mama Blues
TTITLE12=Broke Down Engine
TTITLE13=Death Cell Blues
TTITLE14=B and O Blues No. 2
TTITLE15=Ain't It Grand To Be A Christian
TTITLE16=Don't Let Nobody Turn You Around
TTITLE17=Let Me Play With Yo' Yo-Yo
TTITLE18=Cooling Board Blues
TTITLE19=Hillbilly Willie's Blues
TTITLE20=Lay Some Flowers On My Grave
TTITLE21=Ticket Agent Blues
TTITLE22=A To Z Blues
EXTD=
EXTT0=
EXTT1=
EXTT2=
EXTT3=
EXTT4=
EXTT5=
EXTT6=
EXTT7=
EXTT8=
EXTT9=
EXTT10=
EXTT11=
EXTT12=
EXTT13=
EXTT14=
EXTT15=
EXTT16=
EXTT17=
EXTT18=
EXTT19=
EXTT20=
EXTT21=
EXTT22=
PLAYORDER=
